<svg xmlns="http://www.w3.org/2000/svg" xmlns:xlink="http://www.w3.org/1999/xlink" viewBox="0 0 208.85 87.33"><defs><style>.cls-1{fill:#ffffff;}.cls-2{fill:#000000;}.cls-3,.cls-6,.cls-7{fill:#fff;}.cls-4{fill:none;stroke:#666;stroke-linecap:round;stroke-linejoin:round;}.cls-5{fill:#666;}.cls-6{font-size:14px;fill:#000000}.cls-6,.cls-7{font-family:EurostileBold, Eurostile;font-weight:700;}.cls-7{font-size:10px;fill:#000000}.cls-8{fill:#000000;}</style><symbol id="bkg_-_natural" data-name="bkg - natural" viewBox="0 0 18.5 15.24"><rect class="cls-1" width="18.5" height="15.25" rx="3.49" ry="3.49"/></symbol><symbol id="bkg_-_sharps" data-name="bkg - sharps" viewBox="0 0 15 15"><rect class="cls-2" width="15" height="15" rx="7.5" ry="7.5"/></symbol></defs><title>piano_all_keys_with_names</title><g id="mainBkg"><g id="keyboard"><g id="white_key_0_Layer0_0_FILL" data-name="white key 0 Layer0 0 FILL"><path class="cls-3" d="M35.83,96V9.67H7.19V96Z" transform="translate(-6.72 -9.16)"/></g><path id="white_key_0_Layer0_0_1_STROKES" data-name="white key 0 Layer0 0 1 STROKES" class="cls-4" d="M35.83,9.67V96H7.22V9.67Z" transform="translate(-6.72 -9.16)"/><g id="white_key_0_Layer0_0_FILL-2" data-name="white key 0 Layer0 0 FILL"><path class="cls-3" d="M65.71,96V9.67H37.07V96Z" transform="translate(-6.72 -9.16)"/></g><path id="white_key_0_Layer0_0_1_STROKES-2" data-name="white key 0 Layer0 0 1 STROKES" class="cls-4" d="M65.71,9.67V96H37.1V9.67Z" transform="translate(-6.72 -9.16)"/><g id="white_key_0_Layer0_0_FILL-3" data-name="white key 0 Layer0 0 FILL"><path class="cls-3" d="M95.58,96V9.67H66.94V96Z" transform="translate(-6.72 -9.16)"/></g><path id="white_key_0_Layer0_0_1_STROKES-3" data-name="white key 0 Layer0 0 1 STROKES" class="cls-4" d="M95.58,9.67V96H67V9.67Z" transform="translate(-6.72 -9.16)"/><g id="white_key_0_Layer0_0_FILL-4" data-name="white key 0 Layer0 0 FILL"><path class="cls-3" d="M125.45,96V9.67H96.81V96Z" transform="translate(-6.72 -9.16)"/></g><path id="white_key_0_Layer0_0_1_STROKES-4" data-name="white key 0 Layer0 0 1 STROKES" class="cls-4" d="M125.45,9.67V96H96.85V9.67Z" transform="translate(-6.72 -9.16)"/><g id="white_key_0_Layer0_0_FILL-5" data-name="white key 0 Layer0 0 FILL"><path class="cls-3" d="M155.33,96V9.67H126.69V96Z" transform="translate(-6.72 -9.16)"/></g><path id="white_key_0_Layer0_0_1_STROKES-5" data-name="white key 0 Layer0 0 1 STROKES" class="cls-4" d="M155.33,9.67V96H126.72V9.67Z" transform="translate(-6.72 -9.16)"/><g id="white_key_0_Layer0_0_FILL-6" data-name="white key 0 Layer0 0 FILL"><path class="cls-3" d="M185.2,96V9.67H156.56V96Z" transform="translate(-6.72 -9.16)"/></g><path id="white_key_0_Layer0_0_1_STROKES-6" data-name="white key 0 Layer0 0 1 STROKES" class="cls-4" d="M185.2,9.67V96H156.59V9.67Z" transform="translate(-6.72 -9.16)"/><g id="white_key_0_Layer0_0_FILL-7" data-name="white key 0 Layer0 0 FILL"><path class="cls-3" d="M215.08,96V9.67H186.44V96Z" transform="translate(-6.72 -9.16)"/></g><path id="white_key_0_Layer0_0_1_STROKES-7" data-name="white key 0 Layer0 0 1 STROKES" class="cls-4" d="M215.08,9.67V96H186.47V9.67Z" transform="translate(-6.72 -9.16)"/><g id="black_key_0_Layer0_0_FILL" data-name="black key 0 Layer0 0 FILL"><path d="M76.36,10.07H59V66.9h17.4Z" transform="translate(-6.72 -9.16)"/></g><path id="black_key_0_Layer0_0_1_STROKES" data-name="black key 0 Layer0 0 1 STROKES" class="cls-4" d="M76.36,10.07V66.9H59V10.07Z" transform="translate(-6.72 -9.16)"/><g id="black_key_0_Layer0_0_FILL-2" data-name="black key 0 Layer0 0 FILL"><path d="M133.25,10.07h-17.4V66.9h17.4Z" transform="translate(-6.72 -9.16)"/></g><path id="black_key_0_Layer0_0_1_STROKES-2" data-name="black key 0 Layer0 0 1 STROKES" class="cls-4" d="M133.25,10.07V66.9h-17.4V10.07Z" transform="translate(-6.72 -9.16)"/><g id="black_key_0_Layer0_0_FILL-3" data-name="black key 0 Layer0 0 FILL"><path d="M164.68,10.07h-17.4V66.9h17.4Z" transform="translate(-6.72 -9.16)"/></g><path id="black_key_0_Layer0_0_1_STROKES-3" data-name="black key 0 Layer0 0 1 STROKES" class="cls-4" d="M164.68,10.07V66.9h-17.4V10.07Z" transform="translate(-6.72 -9.16)"/><g id="black_key_0_Layer0_0_FILL-4" data-name="black key 0 Layer0 0 FILL"><path d="M195.72,10.07h-17.4V66.9h17.4Z" transform="translate(-6.72 -9.16)"/></g><path id="black_key_0_Layer0_0_1_STROKES-4" data-name="black key 0 Layer0 0 1 STROKES" class="cls-4" d="M195.72,10.07V66.9h-17.4V10.07Z" transform="translate(-6.72 -9.16)"/><g id="black_key_0_Layer0_0_FILL-5" data-name="black key 0 Layer0 0 FILL"><path d="M43.56,10H26.16V66.86h17.4Z" transform="translate(-6.72 -9.16)"/></g><path id="black_key_0_Layer0_0_1_STROKES-5" data-name="black key 0 Layer0 0 1 STROKES" class="cls-4" d="M43.56,10V66.86H26.16V10Z" transform="translate(-6.72 -9.16)"/><g id="top_short" data-name="top short"><g id="keyboard_0_Layer0_0_FILL" data-name="keyboard 0 Layer0 0 FILL"><path class="cls-5" d="M215,9.16H7.26v2.49H215Z" transform="translate(-6.72 -9.16)"/></g></g></g></g><g id="naturals"><g id="Layer_24" data-name="Layer 24"><use width="18.5" height="15.25" transform="translate(5.33 68.59)" xlink:href="#bkg_-_natural"/><use width="18.5" height="15.25" transform="translate(35.24 68.59)" xlink:href="#bkg_-_natural"/><use width="18.5" height="15.25" transform="translate(65.15 68.59)" xlink:href="#bkg_-_natural"/><use width="18.5" height="15.25" transform="translate(95.06 68.59)" xlink:href="#bkg_-_natural"/><use width="18.5" height="15.25" transform="translate(124.97 68.59)" xlink:href="#bkg_-_natural"/><use width="18.5" height="15.25" transform="translate(154.89 68.59)" xlink:href="#bkg_-_natural"/><use id="bkg_-_natural-15" data-name="bkg - natural" width="18.5" height="15.25" transform="translate(184.8 68.59)" xlink:href="#bkg_-_natural"/></g><g id="Layer_25" data-name="Layer 25"><text class="cls-6" transform="translate(10.3 80.69)">C</text><text class="cls-6" transform="translate(39.94 80.69)">D</text><text class="cls-6" transform="translate(70.5 80.69)">E</text><text class="cls-6" transform="translate(100.57 80.69)">F</text><text class="cls-6" transform="translate(129.6 80.69)">G</text><text class="cls-6" transform="translate(159.77 80.69)">A</text><text class="cls-6" transform="translate(189.77 80.69)">B</text></g></g><g id="Sharps"><g id="Layer_23" data-name="Layer 23"><use width="15" height="15" transform="translate(20.63 37.47)" xlink:href="#bkg_-_sharps"/><use width="15" height="15" transform="translate(53.44 37.47)" xlink:href="#bkg_-_sharps"/><use width="15" height="15" transform="translate(110.29 37.47)" xlink:href="#bkg_-_sharps"/><use width="15" height="15" transform="translate(141.74 37.47)" xlink:href="#bkg_-_sharps"/><use id="bkg_-_sharps-11" data-name="bkg - sharps" width="15" height="15" transform="translate(172.8 37.47)" xlink:href="#bkg_-_sharps"/></g><g id="names"><text class="cls-7" transform="translate(21.79 48.79)">C#</text><text class="cls-7" transform="translate(54.53 48.79)">D#</text><text class="cls-7" transform="translate(112.07 48.79)">F#</text><text class="cls-7" transform="translate(142.8 48.79)">G#</text><text class="cls-7" transform="translate(174.44 48.79)">A#</text></g></g><g id="Flats"><g id="Layer_23_copy" data-name="Layer 23 copy"><g id="bkg_-_sharps-12" data-name="bkg - sharps"><rect class="cls-8" x="20.63" y="17.47" width="15" height="15" rx="7.5" ry="7.5"/></g><g id="bkg_-_sharps-13" data-name="bkg - sharps"><rect class="cls-8" x="53.44" y="17.47" width="15" height="15" rx="7.5" ry="7.5"/></g><g id="bkg_-_sharps-14" data-name="bkg - sharps"><rect class="cls-8" x="110.29" y="17.47" width="15" height="15" rx="7.5" ry="7.5"/></g><g id="bkg_-_sharps-15" data-name="bkg - sharps"><rect class="cls-8" x="141.74" y="17.47" width="15" height="15" rx="7.5" ry="7.5"/></g><g id="bkg_-_sharps-16" data-name="bkg - sharps"><rect class="cls-8" x="172.8" y="17.47" width="15" height="15" rx="7.5" ry="7.5"/></g></g><g id="names_copy" data-name="names copy"><text class="cls-7" transform="translate(22.09 28.79)">Db</text><text class="cls-7" transform="translate(55.53 28.79)">Eb</text><text class="cls-7" transform="translate(111.97 28.79)">Gb</text><text class="cls-7" transform="translate(143.4 28.79)">Ab</text><text class="cls-7" transform="translate(174.44 28.79)">Bb</text></g></g></svg>